<svg id="visual" viewBox="0 0 900 600" width="900" height="600" xmlns="http://www.w3.org/2000/svg" xmlns:xlink="http://www.w3.org/1999/xlink" version="1.1"><rect x="0" y="0" width="900" height="600" fill="#001220"></rect><defs><linearGradient id="grad1_0" x1="33.3%" y1="0%" x2="100%" y2="100%"><stop offset="20%" stop-color="#001220" stop-opacity="1"></stop><stop offset="80%" stop-color="#001220" stop-opacity="1"></stop></linearGradient></defs><defs><linearGradient id="grad2_0" x1="0%" y1="0%" x2="66.7%" y2="100%"><stop offset="20%" stop-color="#001220" stop-opacity="1"></stop><stop offset="80%" stop-color="#001220" stop-opacity="1"></stop></linearGradient></defs><g transform="translate(900, 0)"><path d="M0 486.7C-86.2 474.7 -172.5 462.6 -243.4 421.5C-314.3 380.5 -369.9 310.6 -407.9 235.5C-445.9 160.4 -466.3 80.2 -486.7 0L0 0Z" fill="#01be96"></path></g><g transform="translate(0, 600)"><path d="M0 -486.7C94 -479.1 187.9 -471.5 243.4 -421.5C298.8 -371.6 315.7 -279.3 349.9 -202C384 -124.7 435.4 -62.3 486.7 0L0 0Z" fill="#01be96"></path></g></svg>